<?xml version="1.0" encoding="utf-8"?>
<!-- Generator: Adobe Illustrator 25.4.6, SVG Export Plug-In . SVG Version: 6.00 Build 0)  -->
<svg version="1.1" id="Layer_1" xmlns="http://www.w3.org/2000/svg" xmlns:xlink="http://www.w3.org/1999/xlink" x="0px" y="0px"
	 viewBox="0 0 621.4 271" style="enable-background:new 0 0 621.4 271;" xml:space="preserve">
<style type="text/css">
	.st0{fill:#694B43;}
	.st1{font-family:'LustScript';}
	.st2{font-size:129.2662px;}
	.st3{clip-path:url(#SVGID_00000060024937171234504330000013977274151183644566_);fill:#FFFFFF;}
	.st4{clip-path:url(#SVGID_00000003820597303255396320000006935227616418932631_);fill:#EACAB6;}
	.st5{clip-path:url(#SVGID_00000058578334915914388950000014487572157262485931_);fill:#347141;}
	.st6{clip-path:url(#SVGID_00000176726722425624447150000001737063066717707443_);fill:#F68D70;}
	.st7{clip-path:url(#SVGID_00000088840802970454618790000001352138550097886098_);fill:#FFFFFF;}
</style>
<g>
	<text transform="matrix(1 0 0 1 183.2051 104.8701)" class="st0 st1 st2">Amy’s</text>
</g>
<g>
	<g>
		<defs>
			<rect id="SVGID_1_" x="512.7" y="121.4" width="111" height="132"/>
		</defs>
		<clipPath id="SVGID_00000108990311469266624270000010918531639226810261_">
			<use xlink:href="#SVGID_1_"  style="overflow:visible;"/>
		</clipPath>
		<path style="clip-path:url(#SVGID_00000108990311469266624270000010918531639226810261_);fill:#FFFFFF;" d="M623.7,149
			c0,0.4,0,0.7,0,1.1c-0.1,0.1-0.2,0.1-0.2,0.2c0,0.2,0,0.3,0,0.5c-0.3,1-0.5,2.1-0.8,3.1c-0.6,1.9-1.2,3.9-1.7,5.9
			c-0.4,1.6-0.7,3.2-1,4.9c-0.3,1.2-0.5,2.5-0.7,3.7c-0.2,0.8-0.3,1.5-0.4,2.3c-0.1,0.8-0.3,1.6-0.4,2.4c-0.1,0.8-0.2,1.6-0.3,2.3
			c-0.1,0.6-0.1,1.1-0.2,1.7c-0.1,0.6-0.2,1.3-0.3,1.9c-0.1,0.8-0.2,1.6-0.3,2.3c-0.1,0.8-0.3,1.6-0.4,2.4c-0.2,1.2-0.4,2.5-0.7,3.7
			c-0.3,1.4-0.6,2.8-0.9,4.3c-0.2,1.1-0.4,2.1-0.6,3.2c-0.3,1.2-0.5,2.5-0.8,3.7s-0.6,2.3-0.9,3.5c-0.4,1.4-0.8,2.8-1.2,4.1
			c-0.4,1.5-0.7,3-1.3,4.4c-0.4,1.1-0.7,2.2-1.3,3.2c-0.2,0.3-0.4,0.6-0.7,0.9c-0.3,0.4-0.7,0.7-1,1c-0.5,0.4-0.9,0.8-1.4,1.1
			c-0.4,0.3-0.8,0.6-1.2,0.8c-0.1,0.1-0.2,0.3-0.4,0.3c-1.5,0.9-3,1.8-4.5,2.7c-1.8,1-3.6,2-5.5,2.9c-1.1,0.6-2.2,1.2-3.3,1.7
			c-1.8,0.9-3.7,1.8-5.6,2.7c-2.5,1.2-5,2.5-7.6,3.7c-1.4,0.7-2.8,1.5-4.3,2.2c-1.4,0.7-2.8,1.3-4.2,1.9s-2.7,1.2-4.1,1.7
			c-2,0.8-3.9,1.7-5.9,2.5c-1.5,0.7-3,1.3-4.5,2c-1.8,0.9-3.6,1.6-5.5,2.3c-2.2,0.9-4.5,1.7-6.7,2.6c-1.5,0.6-2.9,1.3-4.4,1.9
			c-1.7,0.7-3.4,1.5-5.1,2.2c-1.2,0.5-2.5,1.1-3.7,1.5c-0.5,0.2-1,0.3-1.6,0.4c-0.7,0.1-1.4,0.2-2.1,0.2c-0.6,0-1.1-0.1-1.6-0.3
			c-0.2-0.1-0.5-0.2-0.7-0.2c-0.8-0.2-1.4-0.6-2-1.1c-0.9-0.9-1.7-1.9-2.2-3.1c-0.4-1-0.7-2.1-0.9-3.1s-0.3-2.1-0.5-3.1
			c-0.1-0.5-0.2-1-0.3-1.5c0-0.1-0.1-0.3-0.1-0.4c-0.3-1.4-0.6-2.9-0.9-4.3c-0.3-1.7-0.7-3.4-0.9-5.1c0-0.3-0.1-0.6-0.2-0.8
			c-0.1-0.5-0.2-1-0.3-1.5c-0.5-1.9-0.9-3.7-1.3-5.6c-0.2-1.3-0.4-2.6-0.6-3.8c-0.2-1.1-0.5-2.1-0.6-3.2c-0.2-0.9-0.2-1.7-0.4-2.6
			c0-1.1,0-2.2,0-3.3c0.1-1.2,0.3-2.3,0.5-3.5c0.2-1,0.4-2.1,0.6-3.2c0-0.1,0.1-0.1,0.1-0.2v0.1v-0.1c0-0.2,0.1-0.4,0.1-0.6
			c0.4-1.4,0.9-2.8,1.3-4.1c0.4-1.6,1-3.2,1.6-4.7c0.3-0.7,0.6-1.5,0.8-2.2c0.4-1.1,0.7-2.3,1.1-3.4c0.3-1,0.6-2,0.9-3.1
			c0.2-0.8,0.4-1.7,0.6-2.5c0.3-1.3,0.7-2.6,1-3.9c0.5-2,1.2-4,1.8-6c0.4-1.2,0.9-2.5,1.4-3.7c0.7-1.9,1.4-3.9,1.9-5.9
			c0.2-1.1,0.5-2.3,0.7-3.4c0.2-1,0.5-2,0.7-3c0.3-1,0.6-2.1,0.8-3.1c0.3-0.9,0.6-1.8,0.8-2.7c0.4-1.4,0.9-2.9,1.3-4.3
			c0.3-0.9,0.6-1.8,0.9-2.8c0.3-0.9,0.6-1.9,0.9-2.8c0.2-0.7,0.4-1.4,0.6-2.1c0.2-0.8,0.5-1.7,0.8-2.5c0.9-2.7,0.3-5.6,2.1-7.9
			c1.6-2,4.1-3.2,6.6-3.6c4.1-0.7,7.9,0.7,11.8,1.3c0.7-1,1.4-1.9,2.3-2.8c1-1,2.2-1.7,3.6-1.9c1.4-0.3,2.8,0,4.1,0.8
			s2.4,1.9,3.2,3.3c0.4,0.7,0.9,1.3,1.3,2c4,0.1,8.6,0.7,12.2,2.1c2.6,1,5.4,2.3,8.2,2.4c2.2,0,4,0,6.2,0.6c1.1,0.3,2.3,0.7,3.4,1
			c1.3,0.4,2.6,0.9,4,1.4c0.9,0.3,1.7,0.7,2.6,1.1c1.1,0.4,2.1,0.8,3.2,1.2c1.1,0.4,2.2,0.8,3.2,1.3c1.4,0.6,2.9,1.2,4.3,1.8
			c0.7,0.3,1.4,0.7,2.1,1.1c1.3,0.7,2.4,1.6,3.3,2.8c1,1.3,1.7,2.7,1.7,4.4C623.5,148.8,623.5,149,623.7,149z"/>
	</g>
	<g>
		<defs>
			<rect id="SVGID_00000006676748035502568500000008788876532306656906_" x="512.7" y="121.4" width="111" height="132"/>
		</defs>
		<clipPath id="SVGID_00000058570554904882468870000007084256590116449424_">
			<use xlink:href="#SVGID_00000006676748035502568500000008788876532306656906_"  style="overflow:visible;"/>
		</clipPath>
		<path style="clip-path:url(#SVGID_00000058570554904882468870000007084256590116449424_);fill:#EACAB6;" d="M612.7,193.1
			c-1.8,0.9-3.5,1.8-5.3,2.8c-1.6,0.8-3.1,1.6-4.6,2.5c-1.1,0.6-2.2,1.2-3.2,1.9c-1.2,0.8-2.5,1.5-3.7,2.2c-0.9,0.5-1.9,1.1-2.8,1.6
			c-0.6,0.3-1.1,0.7-1.7,1.1c-2,1.1-4.1,2.2-6.2,3.3c-0.8,0.4-1.6,0.9-2.5,1.4c-0.8,0.4-1.6,0.8-2.5,1.2c-1.4,0.7-2.9,1.3-4.4,1.9
			c-0.9,0.4-1.7,0.9-2.6,1.4c-1.8,1-3.6,1.9-5.4,2.8c-1.7,0.9-3.3,1.7-5,2.6c-3.2,1.6-6.5,3.2-9.7,4.8c-1.2,0.6-2.4,1.1-3.6,1.7
			c-1.6,0.8-3.3,1.5-4.9,2.3c-1.5,0.7-3,1.4-4.5,2.2c-1,0.5-2,1-3,1.5c-2.1,1-4.2,2-6.3,3c-1.3,0.6-2.6,1.2-4,1.8
			c-1.9,0.9-3.7,1.7-5.6,2.5c-1.1,0.5-2.2,1-3.3,1.4c0.1,0.5,0.2,1,0.3,1.5c0.2,1,0.3,2.1,0.5,3.1c0.2,1.1,0.5,2.1,0.9,3.1
			c0.5,1.2,1.3,2.2,2.2,3.1c0.6,0.5,1.2,0.9,2,1.1c0.2,0.1,0.5,0.1,0.7,0.2c0.5,0.2,1.1,0.3,1.6,0.3c0.7,0,1.4-0.1,2.1-0.2
			c0.5-0.1,1.1-0.2,1.6-0.4c1.3-0.5,2.5-1,3.7-1.5c1.7-0.7,3.4-1.5,5.1-2.2c1.5-0.6,2.9-1.3,4.4-1.9c2.2-0.9,4.5-1.8,6.7-2.6
			c1.9-0.7,3.7-1.4,5.5-2.3c1.5-0.7,3-1.4,4.5-2c1.9-0.9,3.9-1.7,5.9-2.5c1.4-0.6,2.7-1.2,4.1-1.7c1.4-0.6,2.8-1.2,4.2-1.9
			c1.4-0.7,2.8-1.4,4.3-2.2c2.5-1.3,5-2.5,7.6-3.7c1.8-0.9,3.7-1.8,5.6-2.7c1.1-0.6,2.2-1.1,3.3-1.7c1.8-1,3.7-1.9,5.5-2.9
			c1.5-0.8,3-1.8,4.5-2.7c0.1-0.1,0.2-0.2,0.4-0.3c0-0.1,0-0.1,0.1-0.2c0.4-0.9,0.8-1.8,1.4-2.6c1.3-2,2.1-4.2,2.8-6.5
			c0.4-1.3,0.7-2.5,1.1-3.8c0.4-1.5,0.9-3.1,1.3-4.6c0.6-2.1,1.1-4.3,1.4-6.5c0-0.1,0-0.3,0-0.4C612.8,193,612.7,193,612.7,193.1z
			 M618.8,159.5c-0.3,1.4-0.7,2.7-1.1,4.1c-0.4,1.4-0.8,2.8-1.2,4.1c-0.3,1.1-0.6,2.2-0.9,3.3c-0.4,1.5-0.7,3.1-0.9,4.6
			c-0.1,0.5-0.1,0.9-0.2,1.4c0,0.2-0.1,0.4-0.4,0.5c-0.8,0.5-1.6,1-2.4,1.6c-1.3,0.9-2.6,1.9-4,2.9c-1.1,0.8-2.3,1.6-3.4,2.4
			c-1.9,1.2-3.8,2.4-5.7,3.5c-1.6,0.9-3.1,1.9-4.7,2.8c-1.3,0.7-2.5,1.4-3.8,2.2c-1.5,0.9-3,1.8-4.5,2.7c-1.7,1-3.4,2.1-5.1,3.1
			c-0.9,0.6-1.9,1.2-2.8,1.8c-1.7,1.1-3.4,2.1-5.2,3.2c-1.5,0.9-2.9,1.7-4.5,2.4c-3.6,1.9-7.3,3.7-11,5.6c-1.5,0.8-3,1.5-4.5,2.3
			c-0.9,0.5-1.9,1-2.8,1.5c-2.2,1-4.4,2-6.6,3c-1.3,0.6-2.6,1.2-4,1.7c-1.3,0.6-2.6,1.1-3.9,1.7c-1.2,0.5-2.4,1.1-3.6,1.6
			c-1.1,0.5-2.2,0.9-3.3,1.4c-0.9,0.4-1.9,0.8-2.8,1.2c-1.3,0.6-2.6,1.2-4,1.7c-1,0.4-2,0.9-3,1.3c-0.8,0.3-1.5,0.7-2.3,1
			c-0.1,0.1-0.3,0.1-0.4,0.1c-0.1-0.5-0.2-1-0.3-1.5c-0.5-1.9-0.9-3.7-1.3-5.6c-0.2-1.3-0.4-2.6-0.6-3.8c-0.2-1.1-0.5-2.1-0.6-3.2
			c-0.2-0.9-0.2-1.7-0.4-2.6c0-1.1,0-2.2,0-3.3c0.1-1.2,0.3-2.3,0.5-3.5c0.2-1,0.4-2.1,0.6-3.2c0-0.1,0.1-0.1,0.1-0.2
			c0,0.1,0.1,0.3,0,0.4c-0.2,1-0.3,2.1-0.3,3.2c0,0.4,0.1,0.7,0.2,1c0.2,0.5,0.5,0.9,0.9,1.3c0.1,0.1,0.3,0.2,0.5,0.2
			c0.9,0.2,1.7,0.3,2.6,0.4c0.6,0.1,1.2-0.1,1.7-0.2c1-0.2,2-0.6,3-1.1c1-0.4,1.9-0.8,2.9-1.2c0.6-0.3,1.2-0.5,1.8-0.8
			c1-0.5,2.1-1,3.1-1.5c1.5-0.8,2.9-1.6,4.4-2.4c0.8-0.5,1.6-0.9,2.4-1.4c1.4-0.8,2.8-1.6,4.2-2.3c0.8-0.4,1.6-0.9,2.5-1.3
			c0.9-0.5,1.7-1,2.5-1.5c1.3-0.8,2.6-1.6,3.9-2.3c0.8-0.5,1.7-1,2.5-1.5c1.9-1.2,3.8-2.4,5.7-3.5c1.3-0.7,2.5-1.6,3.8-2.3
			c1.5-0.9,2.9-1.8,4.4-2.7c0.7-0.5,1.5-0.9,2.2-1.4c1.8-1.2,3.6-2.3,5.5-3.4c2-1.1,3.9-2.4,5.8-3.7c1.1-0.7,2.2-1.3,3.3-2
			c1.6-1,3.2-2,4.8-3.1c1.8-1.2,3.7-2.4,5.5-3.6c1-0.7,2-1.4,3-2.1c3.2-2.1,6.5-4.2,9.7-6.4c0.7-0.4,1.3-0.9,1.9-1.4
			c0.2-0.1,0.4-0.3,0.6-0.4c0.9-0.5,1.9-1.1,2.9-1.6c0.2-0.1,0.4-0.3,0.6-0.4c1.2-0.6,2.1-1.5,3.3-2.1c0.7-0.4,1.4-0.6,2.2-0.4
			c0.5,0.1,0.8,0.5,1,1s0.3,1,0.3,1.5C619.5,155.9,619.2,157.7,618.8,159.5z"/>
	</g>
	<g>
		<defs>
			<rect id="SVGID_00000064323664826135093620000017306486470058766744_" x="512.7" y="121.4" width="111" height="132"/>
		</defs>
		<clipPath id="SVGID_00000169542612488254068610000010695689840085310639_">
			<use xlink:href="#SVGID_00000064323664826135093620000017306486470058766744_"  style="overflow:visible;"/>
		</clipPath>
		<path style="clip-path:url(#SVGID_00000169542612488254068610000010695689840085310639_);fill:#347141;" d="M575.4,157.9
			c0.2,0.2,0.2,0.5,0,0.7c-0.2,0.3-0.4,0.3-0.7,0.3c-1.1,0-2.2-0.3-3.2-0.8c-0.7-0.3-1.4-0.7-2.1-1.1c-0.1,0-0.1-0.1-0.2-0.1
			c0.1,0.2,0.1,0.4,0.1,0.5c0.5,1.5,0.9,2.9,1.4,4.4c0.2,0.5,0.5,1,0.7,1.5c0.1,0.3,0.2,0.5,0.3,0.8c0.1,0.6-0.5,1-1,0.7
			c-2.2-1.1-4.2-2.6-5.8-4.4c-0.2-0.3-0.4-0.6-0.7-0.9c0-0.1-0.1-0.1-0.2-0.2c0,0.2,0,0.3-0.1,0.4c-0.2,1.3-0.5,2.6-0.7,3.9
			c0,0.1-0.1,0.3-0.1,0.4c-0.3,0.6-0.9,0.7-1.3,0.2c-0.2-0.3-0.5-0.6-0.7-0.9c-0.8-1.3-1.6-2.7-2.5-4c-0.1-0.1-0.1-0.2-0.3-0.4
			c-0.1,0.2-0.3,0.3-0.4,0.5c-0.6,0.7-1.2,1.3-1.9,2c-1,0.9-2.2,1.6-3.3,2.3c-0.1,0.1-0.2,0.1-0.4,0.1c-0.3,0.1-0.5,0-0.7-0.2
			s-0.2-0.5,0-0.7c0.2-0.5,0.5-0.9,0.7-1.4c0.6-1.1,1.2-2.3,1.5-3.6c0-0.1,0-0.2,0.1-0.3c0,0,0,0,0-0.1c-0.5,0-0.9,0.1-1.4,0.1
			c-1.7,0.2-3.4,0.3-5.1,0.2c-0.3,0-0.6-0.1-0.8-0.1c-0.3-0.1-0.5-0.2-0.5-0.6c0-0.3,0.1-0.5,0.4-0.7c0.5-0.3,1-0.7,1.5-1
			c0.7-0.5,1.3-1,1.9-1.5c0.6,0.6,1.2,1.2,2,1.6s1.5,0.8,2.3,1.1c1.2,0.5,2.4,0.9,3.7,1c0.7,0.1,1.3,0.1,2,0.2
			c0.9,0,1.8,0.1,2.7,0.1c2.6-0.1,5.1-0.9,7.3-2.3c0.8-0.5,1.6-1,2.2-1.8c0.7,1.1,1.5,2,2.4,2.9C575,157.2,575.2,157.5,575.4,157.9z
			"/>
	</g>
	<g>
		<defs>
			<rect id="SVGID_00000093157074482916110650000007110987297591856795_" x="512.7" y="121.4" width="111" height="132"/>
		</defs>
		<clipPath id="SVGID_00000021841874065850757670000011940519610143680640_">
			<use xlink:href="#SVGID_00000093157074482916110650000007110987297591856795_"  style="overflow:visible;"/>
		</clipPath>
		<path style="clip-path:url(#SVGID_00000021841874065850757670000011940519610143680640_);fill:#F68D70;" d="M586.1,195.1
			c-2.6,1.6-5.3,3.2-7.9,4.9c-4,2.6-8.1,4.9-12.4,7.1c-0.1,0-0.1,0.1-0.3,0.2c0.3,0.3,0.6,0.5,0.9,0.7c1,0.6,2.2,1,3.4,1
			c1.4,0.1,2.9,0.1,4.3,0c1.6-0.1,3.3-0.2,4.9-0.5c1.7-0.3,3.2-0.8,4.7-1.6c0.8-0.5,1.6-1.1,2.2-1.8c0.2-0.2,0.4-0.5,0.5-0.8
			c0.2-0.4,0.4-0.9,0.5-1.4c0.2-0.6,0.2-1.3,0.3-1.9c0.1-1.2,0.1-2.5-0.2-3.7c-0.2-0.8-0.4-1.6-0.7-2.4
			C586.3,195,586.2,195,586.1,195.1z M563.1,208.5c-3.4,1.7-6.9,3.5-10.3,5.2c-2.7,1.4-5.5,2.7-8.2,4c-0.9,0.4-1.8,0.8-2.7,1.2
			c-0.2,0.1-0.2,0.1-0.1,0.3c0.3,0.3,0.6,0.6,0.9,0.8c1,0.8,2.1,1.2,3.3,1.3c1.4,0.2,2.9,0.2,4.3,0.3c1.7,0,3.5,0,5.2-0.2
			c0.8-0.1,1.7-0.3,2.5-0.5c0.5-0.1,1.1-0.4,1.6-0.6c1.2-0.5,2.3-1.2,3.1-2.3c0.3-0.4,0.5-0.9,0.7-1.4c0.1-0.3,0.3-0.6,0.3-1
			c0.1-0.9,0.3-1.8,0.3-2.7c0.1-1,0-2.1-0.3-3.1c-0.1-0.5-0.3-1-0.4-1.6C563.2,208.4,563.1,208.5,563.1,208.5z M517.2,229.8
			c0.1,0.1,0.1,0.2,0.2,0.3c1.1,1.2,2.5,1.9,4.1,2.1c1.9,0.3,3.7,0.5,5.6,0.5c1.1,0,2.3,0,3.4,0c0.7,0,1.4-0.1,2.1-0.2
			c0.6-0.1,1.2-0.4,1.9-0.5c1.1-0.3,2-0.8,2.8-1.5c0.4-0.3,0.8-0.7,1.1-1.1c0.2-0.3,0.4-0.7,0.6-1.1c0.1-0.3,0.3-0.6,0.4-0.9
			c0.4-1.6,0.6-3.2,0.4-4.9c-0.1-0.7-0.3-1.5-0.4-2.2c0-0.1-0.1-0.2-0.2-0.1c-0.1,0-0.1,0-0.2,0.1c-3.3,1.5-6.7,2.9-10,4.4
			c-3.6,1.6-7.2,3.2-10.8,4.7C517.9,229.4,517.5,229.5,517.2,229.8C517.2,229.7,517.2,229.8,517.2,229.8z M610.8,182.9
			c-0.2-0.7-0.6-1.5-0.9-2.2c-0.1-0.3-0.2-0.3-0.4-0.1c-1.9,1.3-3.7,2.7-5.6,3.9c-3.6,2.4-7.4,4.5-11.1,6.7c-1.3,0.8-2.6,1.5-4,2.3
			c-0.1,0.1-0.2,0.1-0.1,0.3c0.5,0.6,1.1,1.2,1.9,1.5c1.5,0.5,3.1,0.8,4.7,0.7c1.3-0.1,2.6-0.1,4-0.2s2.7-0.2,4-0.6
			c0.9-0.2,1.8-0.4,2.7-0.7c0.5-0.2,1-0.5,1.5-0.8c0.9-0.4,1.7-1.1,2.4-1.8c0.4-0.4,0.7-0.8,0.9-1.3c0.2-0.4,0.3-0.9,0.5-1.4
			c0.1-0.2,0.1-0.4,0.1-0.7c0-0.7,0.1-1.4,0.1-2.1C611.4,185.3,611.2,184.1,610.8,182.9z M575.6,145.8c0.1,2.3-0.6,4.4-1.9,6.3
			c-0.4,0.6-0.8,1.2-1.3,1.8c-0.6,0.8-1.5,1.4-2.4,1.9c-2.3,1.3-4.7,2.2-7.3,2.3c-0.9,0-1.8,0-2.7-0.1c-0.7,0-1.3-0.1-2-0.2
			c-1.3-0.1-2.5-0.5-3.7-1c-0.8-0.3-1.5-0.7-2.3-1.1c-1-0.5-1.8-1.3-2.6-2.2c-0.6-0.6-1.1-1.2-1.5-1.9c-0.4-0.7-0.8-1.4-1.1-2.2
			c-0.6-1.2-0.7-2.5-0.6-3.8c0.1-1.2,0.2-2.5,0.4-3.7c0.3-1.6,0.9-3.2,1.6-4.6c0.8-1.6,1.7-3.1,2.6-4.6c1-1.7,2-3.4,3-5.1
			c0.9-1.5,1.8-2.9,3.1-4.1c1-1,2.2-1.7,3.6-1.9c1.4-0.3,2.8,0,4.1,0.8s2.4,1.9,3.2,3.3c0.5,0.8,1,1.6,1.5,2.4c0.6,1,1.2,2,1.8,3
			c0.6,1.3,1.2,2.6,1.8,3.9c0.4,1,0.9,1.9,1.3,2.9c0.7,1.8,1.2,3.7,1.3,5.7C575.6,144.3,575.6,145.1,575.6,145.8z"/>
	</g>
	<g>
		<defs>
			<rect id="SVGID_00000142899048765409996110000010226621379770953871_" x="512.7" y="121.4" width="111" height="132"/>
		</defs>
		<clipPath id="SVGID_00000080923679959015562370000003666500943041274040_">
			<use xlink:href="#SVGID_00000142899048765409996110000010226621379770953871_"  style="overflow:visible;"/>
		</clipPath>
		<path style="clip-path:url(#SVGID_00000080923679959015562370000003666500943041274040_);fill:#FFFFFF;" d="M572.1,147.4
			c0,0.2,0,0.3,0,0.5s0.1,0.4,0.3,0.4c0.2,0.1,0.4,0.1,0.5-0.1c0.5-0.5,0.6-1.2,0.4-1.9c-0.1-0.2-0.3-0.4-0.6-0.4
			c-0.2,0-0.4,0.2-0.5,0.4C572.2,146.7,572.1,147,572.1,147.4L572.1,147.4z M550.4,138.9c0,0.2,0,0.4,0.1,0.6c0,0.2,0.1,0.5,0.1,0.7
			c0.1,0.2,0.3,0.4,0.5,0.4s0.4-0.1,0.4-0.4c0.1-0.3,0.1-0.7,0.2-1.1c0.1-0.3,0.1-0.6-0.1-0.9c-0.1-0.2-0.3-0.4-0.5-0.4
			s-0.4,0.1-0.5,0.3C550.5,138.3,550.4,138.6,550.4,138.9L550.4,138.9z M562,126.2c0.1,0.7,0.3,1.3,0.4,2c0.1,0.3,0.3,0.4,0.6,0.4
			c0.2,0,0.4-0.2,0.5-0.5c0.1-0.5,0.1-0.9,0-1.4c0-0.2-0.1-0.4-0.1-0.6c-0.1-0.4-0.4-0.6-0.7-0.6C562.3,125.5,561.9,125.8,562,126.2
			z M552,146.7c-0.2-0.4-0.5-0.6-0.9-0.3c-0.1,0.1-0.2,0.4-0.3,0.6c-0.1,0.5,0,1,0.2,1.4c0.1,0.3,0.2,0.5,0.4,0.7
			c0.1,0.2,0.5,0.2,0.7,0.2c0.2-0.1,0.3-0.3,0.3-0.5c0-0.1,0-0.1,0-0.2C552.4,147.9,552.3,147.3,552,146.7z M567.6,144.5
			c-0.5-0.3-1.1-0.1-1.2,0.5c0,0.2,0,0.4-0.1,0.6c0,0.3,0,0.7,0,1c0,0.2,0.1,0.4,0.3,0.5s0.4,0.1,0.6-0.1c0.5-0.5,0.6-1.1,0.7-1.6
			S567.9,144.6,567.6,144.5z M560.1,151.1c0,0.3,0.1,0.5,0.1,0.8s0.1,0.6,0.3,0.9c0.1,0.2,0.3,0.3,0.6,0.3c0.2,0,0.4-0.2,0.4-0.4
			c0.1-0.6,0.1-1.2,0.2-1.8c0-0.2,0-0.3-0.1-0.5s-0.3-0.4-0.5-0.4c-0.3,0-0.6,0-0.7,0.3C560.2,150.5,560.1,150.8,560.1,151.1
			L560.1,151.1z M558.7,132.7c0-0.1,0-0.3-0.1-0.4c-0.1-0.2-0.3-0.4-0.5-0.4c-0.3,0-0.5,0.1-0.7,0.3c-0.5,0.8-0.6,1.7-0.2,2.6
			c0.1,0.2,0.3,0.4,0.5,0.3c0.2,0,0.4-0.2,0.4-0.4c0.1-0.3,0.2-0.6,0.2-0.9C558.5,133.4,558.6,133.1,558.7,132.7L558.7,132.7z
			 M567.9,135.6c0,0.6,0,1.2,0,1.8c0,0.4,0.5,0.7,0.8,0.4c0.2-0.1,0.3-0.3,0.4-0.5c0.2-0.5,0.3-1,0.4-1.4c0.1-0.6-0.4-1.2-0.8-1.1
			C568.3,134.7,567.9,135.1,567.9,135.6z M559.3,141.7c-0.1,0.6-0.1,1.2-0.4,1.7c-0.1,0.2-0.3,0.3-0.6,0.3s-0.4-0.2-0.4-0.5
			c-0.1-0.5-0.2-1-0.2-1.4c0-0.3,0-0.6,0.2-0.9c0.2-0.2,0.4-0.4,0.7-0.4s0.5,0.2,0.6,0.5C559.2,141.2,559.2,141.5,559.3,141.7z"/>
	</g>
</g>
<text transform="matrix(1 0 0 1 6.5342 233.2938)" class="st0 st1 st2">Bakery</text>
</svg>
