<?xml version="1.0" encoding="utf-8"?>
<!-- Generator: Adobe Illustrator 25.4.6, SVG Export Plug-In . SVG Version: 6.00 Build 0)  -->
<svg version="1.1" id="Layer_1" xmlns="http://www.w3.org/2000/svg" xmlns:xlink="http://www.w3.org/1999/xlink" x="0px" y="0px"
	 viewBox="0 0 139 158" style="enable-background:new 0 0 139 158;" xml:space="preserve">
<style type="text/css">
	.st0{clip-path:url(#SVGID_00000098195846822590800790000009528357957732050605_);fill:#FFFFFF;}
	.st1{clip-path:url(#SVGID_00000014610711781853484490000014398129469784935311_);fill:#EACAB6;}
	.st2{clip-path:url(#SVGID_00000061449905447191235990000012550979818020661652_);fill:#347141;}
	.st3{clip-path:url(#SVGID_00000065788093568562126210000001991184957909335212_);fill:#F68D70;}
	.st4{clip-path:url(#SVGID_00000100352924606129593580000007922978049525906588_);fill:#FFFFFF;}
</style>
<g>
	<g>
		<g>
			<defs>
				<rect id="SVGID_1_" x="14.1" y="12.4" width="111" height="132"/>
			</defs>
			<clipPath id="SVGID_00000139286311489868382910000002643378554691894182_">
				<use xlink:href="#SVGID_1_"  style="overflow:visible;"/>
			</clipPath>
			<path style="clip-path:url(#SVGID_00000139286311489868382910000002643378554691894182_);fill:#FFFFFF;" d="M125.1,40
				c0,0.4,0,0.7,0,1.1c-0.1,0.1-0.2,0.1-0.2,0.2c0,0.2,0,0.3,0,0.5c-0.3,1-0.5,2.1-0.8,3.1c-0.6,1.9-1.2,3.9-1.7,5.9
				c-0.4,1.6-0.7,3.2-1,4.9c-0.3,1.2-0.5,2.5-0.7,3.7c-0.2,0.8-0.3,1.5-0.4,2.3c-0.1,0.8-0.3,1.6-0.4,2.4c-0.1,0.8-0.2,1.6-0.3,2.3
				c-0.1,0.6-0.1,1.1-0.2,1.7c-0.1,0.6-0.2,1.3-0.3,1.9c-0.1,0.8-0.2,1.6-0.3,2.3c-0.1,0.8-0.3,1.6-0.4,2.4
				c-0.2,1.2-0.4,2.5-0.7,3.7c-0.3,1.4-0.6,2.8-0.9,4.3c-0.2,1.1-0.4,2.1-0.6,3.2c-0.3,1.2-0.5,2.5-0.8,3.7s-0.6,2.3-0.9,3.5
				c-0.4,1.4-0.8,2.8-1.2,4.1c-0.4,1.5-0.7,3-1.3,4.4c-0.4,1.1-0.7,2.2-1.3,3.2c-0.2,0.3-0.4,0.6-0.7,0.9c-0.3,0.4-0.7,0.7-1,1
				c-0.5,0.4-0.9,0.8-1.4,1.1c-0.4,0.3-0.8,0.6-1.2,0.8c-0.1,0.1-0.2,0.3-0.4,0.3c-1.5,0.9-3,1.8-4.5,2.7c-1.8,1-3.6,2-5.5,2.9
				c-1.1,0.6-2.2,1.2-3.3,1.7c-1.8,0.9-3.7,1.8-5.6,2.7c-2.5,1.2-5,2.5-7.6,3.7c-1.4,0.7-2.8,1.5-4.3,2.2c-1.4,0.7-2.8,1.3-4.2,1.9
				s-2.7,1.2-4.1,1.7c-2,0.8-3.9,1.7-5.9,2.5c-1.5,0.7-3,1.3-4.5,2c-1.8,0.9-3.6,1.6-5.5,2.3c-2.2,0.9-4.5,1.7-6.7,2.6
				c-1.5,0.6-2.9,1.3-4.4,1.9c-1.7,0.7-3.4,1.5-5.1,2.2c-1.2,0.5-2.5,1.1-3.7,1.5c-0.5,0.2-1,0.3-1.6,0.4c-0.7,0.1-1.4,0.2-2.1,0.2
				c-0.6,0-1.1-0.1-1.6-0.3c-0.2-0.1-0.5-0.2-0.7-0.2c-0.8-0.2-1.4-0.6-2-1.1c-0.9-0.9-1.7-1.9-2.2-3.1c-0.4-1-0.7-2.1-0.9-3.1
				s-0.3-2.1-0.5-3.1c-0.1-0.5-0.2-1-0.3-1.5c0-0.1-0.1-0.3-0.1-0.4c-0.3-1.4-0.6-2.9-0.9-4.3c-0.3-1.7-0.7-3.4-0.9-5.1
				c0-0.3-0.1-0.6-0.2-0.8c-0.1-0.5-0.2-1-0.3-1.5c-0.5-1.9-0.9-3.7-1.3-5.6c-0.2-1.3-0.4-2.6-0.6-3.8c-0.2-1.1-0.5-2.1-0.6-3.2
				c-0.2-0.9-0.2-1.7-0.4-2.6c0-1.1,0-2.2,0-3.3c0.1-1.2,0.3-2.3,0.5-3.5c0.2-1,0.4-2.1,0.6-3.2c0-0.1,0.1-0.1,0.1-0.2v0.1v-0.1
				c0-0.2,0.1-0.4,0.1-0.6c0.4-1.4,0.9-2.8,1.3-4.1c0.4-1.6,1-3.2,1.6-4.7c0.3-0.7,0.6-1.5,0.8-2.2c0.4-1.1,0.7-2.3,1.1-3.4
				c0.3-1,0.6-2,0.9-3.1c0.2-0.8,0.4-1.7,0.6-2.5c0.3-1.3,0.7-2.6,1-3.9c0.5-2,1.2-4,1.8-6c0.4-1.2,0.9-2.5,1.4-3.7
				c0.7-1.9,1.4-3.9,1.9-5.9c0.2-1.1,0.5-2.3,0.7-3.4c0.2-1,0.5-2,0.7-3c0.3-1,0.6-2.1,0.8-3.1c0.3-0.9,0.6-1.8,0.8-2.7
				c0.4-1.4,0.9-2.9,1.3-4.3c0.3-0.9,0.6-1.8,0.9-2.8c0.3-0.9,0.6-1.9,0.9-2.8c0.2-0.7,0.4-1.4,0.6-2.1c0.2-0.8,0.5-1.7,0.8-2.5
				c0.9-2.7,0.3-5.6,2.1-7.9c1.6-2,4.1-3.2,6.6-3.6c4.1-0.7,7.9,0.7,11.8,1.3c0.7-1,1.4-1.9,2.3-2.8c1-1,2.2-1.7,3.6-1.9
				c1.4-0.3,2.8,0,4.1,0.8s2.4,1.9,3.2,3.3c0.4,0.7,0.9,1.3,1.3,2c4,0.1,8.6,0.7,12.2,2.1c2.6,1,5.4,2.3,8.2,2.4c2.2,0,4,0,6.2,0.6
				c1.1,0.3,2.3,0.7,3.4,1c1.3,0.4,2.6,0.9,4,1.4c0.9,0.3,1.7,0.7,2.6,1.1c1.1,0.4,2.1,0.8,3.2,1.2c1.1,0.4,2.2,0.8,3.2,1.3
				c1.4,0.6,2.9,1.2,4.3,1.8c0.7,0.3,1.4,0.7,2.1,1.1c1.3,0.7,2.4,1.6,3.3,2.8c1,1.3,1.7,2.7,1.7,4.4C124.9,39.8,124.9,40,125.1,40z
				"/>
		</g>
	</g>
	<g>
		<g>
			<defs>
				<rect id="SVGID_00000045606073000464298380000004962168110988460440_" x="14.1" y="12.4" width="111" height="132"/>
			</defs>
			<clipPath id="SVGID_00000013182664117471151490000013409396712439166883_">
				<use xlink:href="#SVGID_00000045606073000464298380000004962168110988460440_"  style="overflow:visible;"/>
			</clipPath>
			<path style="clip-path:url(#SVGID_00000013182664117471151490000013409396712439166883_);fill:#EACAB6;" d="M114.1,84.1
				c-1.8,0.9-3.5,1.8-5.3,2.8c-1.6,0.8-3.1,1.6-4.6,2.5c-1.1,0.6-2.2,1.2-3.2,1.9c-1.2,0.8-2.5,1.5-3.7,2.2
				c-0.9,0.5-1.9,1.1-2.8,1.6c-0.6,0.3-1.1,0.7-1.7,1.1c-2,1.1-4.1,2.2-6.2,3.3c-0.8,0.4-1.6,0.9-2.5,1.4c-0.8,0.4-1.6,0.8-2.5,1.2
				c-1.4,0.7-2.9,1.3-4.4,1.9c-0.9,0.4-1.7,0.9-2.6,1.4c-1.8,1-3.6,1.9-5.4,2.8c-1.7,0.9-3.3,1.7-5,2.6c-3.2,1.6-6.5,3.2-9.7,4.8
				c-1.2,0.6-2.4,1.1-3.6,1.7c-1.6,0.8-3.3,1.5-4.9,2.3c-1.5,0.7-3,1.4-4.5,2.2c-1,0.5-2,1-3,1.5c-2.1,1-4.2,2-6.3,3
				c-1.3,0.6-2.6,1.2-4,1.8c-1.9,0.9-3.7,1.7-5.6,2.5c-1.1,0.5-2.2,1-3.3,1.4c0.1,0.5,0.2,1,0.3,1.5c0.2,1,0.3,2.1,0.5,3.1
				c0.2,1.1,0.5,2.1,0.9,3.1c0.5,1.2,1.3,2.2,2.2,3.1c0.6,0.5,1.2,0.9,2,1.1c0.2,0.1,0.5,0.1,0.7,0.2c0.5,0.2,1.1,0.3,1.6,0.3
				c0.7,0,1.4-0.1,2.1-0.2c0.5-0.1,1.1-0.2,1.6-0.4c1.3-0.5,2.5-1,3.7-1.5c1.7-0.7,3.4-1.5,5.1-2.2c1.5-0.6,2.9-1.3,4.4-1.9
				c2.2-0.9,4.5-1.8,6.7-2.6c1.9-0.7,3.7-1.4,5.5-2.3c1.5-0.7,3-1.4,4.5-2c1.9-0.9,3.9-1.7,5.9-2.5c1.4-0.6,2.7-1.2,4.1-1.7
				c1.4-0.6,2.8-1.2,4.2-1.9s2.8-1.4,4.3-2.2c2.5-1.3,5-2.5,7.6-3.7c1.8-0.9,3.7-1.8,5.6-2.7c1.1-0.6,2.2-1.1,3.3-1.7
				c1.8-1,3.7-1.9,5.5-2.9c1.5-0.8,3-1.8,4.5-2.7c0.1-0.1,0.2-0.2,0.4-0.3c0-0.1,0-0.1,0.1-0.2c0.4-0.9,0.8-1.8,1.4-2.6
				c1.3-2,2.1-4.2,2.8-6.5c0.4-1.3,0.7-2.5,1.1-3.8c0.4-1.5,0.9-3.1,1.3-4.6c0.6-2.1,1.1-4.3,1.4-6.5c0-0.1,0-0.3,0-0.4
				C114.2,84,114.1,84,114.1,84.1z M120.2,50.5c-0.3,1.4-0.7,2.7-1.1,4.1c-0.4,1.4-0.8,2.8-1.2,4.1c-0.3,1.1-0.6,2.2-0.9,3.3
				c-0.4,1.5-0.7,3.1-0.9,4.6c-0.1,0.5-0.1,0.9-0.2,1.4c0,0.2-0.1,0.4-0.4,0.5c-0.8,0.5-1.6,1-2.4,1.6c-1.3,0.9-2.6,1.9-4,2.9
				c-1.1,0.8-2.3,1.6-3.4,2.4c-1.9,1.2-3.8,2.4-5.7,3.5c-1.6,0.9-3.1,1.9-4.7,2.8c-1.3,0.7-2.5,1.4-3.8,2.2c-1.5,0.9-3,1.8-4.5,2.7
				c-1.7,1-3.4,2.1-5.1,3.1c-0.9,0.6-1.9,1.2-2.8,1.8c-1.7,1.1-3.4,2.1-5.2,3.2c-1.5,0.9-2.9,1.7-4.5,2.4c-3.6,1.9-7.3,3.7-11,5.6
				c-1.5,0.8-3,1.5-4.5,2.3c-0.9,0.5-1.9,1-2.8,1.5c-2.2,1-4.4,2-6.6,3c-1.3,0.6-2.6,1.2-4,1.7c-1.3,0.6-2.6,1.1-3.9,1.7
				c-1.2,0.5-2.4,1.1-3.6,1.6c-1.1,0.5-2.2,0.9-3.3,1.4c-0.9,0.4-1.9,0.8-2.8,1.2c-1.3,0.6-2.6,1.2-4,1.7c-1,0.4-2,0.9-3,1.3
				c-0.8,0.3-1.5,0.7-2.3,1c-0.1,0.1-0.3,0.1-0.4,0.1c-0.1-0.5-0.2-1-0.3-1.5c-0.5-1.9-0.9-3.7-1.3-5.6c-0.2-1.3-0.4-2.6-0.6-3.8
				c-0.2-1.1-0.5-2.1-0.6-3.2c-0.2-0.9-0.2-1.7-0.4-2.6c0-1.1,0-2.2,0-3.3c0.1-1.2,0.3-2.3,0.5-3.5c0.2-1,0.4-2.1,0.6-3.2
				c0-0.1,0.1-0.1,0.1-0.2c0,0.1,0.1,0.3,0,0.4c-0.2,1-0.3,2.1-0.3,3.2c0,0.4,0.1,0.7,0.2,1c0.2,0.5,0.5,0.9,0.9,1.3
				c0.1,0.1,0.3,0.2,0.5,0.2c0.9,0.2,1.7,0.3,2.6,0.4c0.6,0.1,1.2-0.1,1.7-0.2c1-0.2,2-0.6,3-1.1c1-0.4,1.9-0.8,2.9-1.2
				c0.6-0.3,1.2-0.5,1.8-0.8c1-0.5,2.1-1,3.1-1.5c1.5-0.8,2.9-1.6,4.4-2.4c0.8-0.5,1.6-0.9,2.4-1.4c1.4-0.8,2.8-1.6,4.2-2.3
				c0.8-0.4,1.6-0.9,2.5-1.3c0.9-0.5,1.7-1,2.5-1.5c1.3-0.8,2.6-1.6,3.9-2.3c0.8-0.5,1.7-1,2.5-1.5c1.9-1.2,3.8-2.4,5.7-3.5
				c1.3-0.7,2.5-1.6,3.8-2.3c1.5-0.9,2.9-1.8,4.4-2.7c0.7-0.5,1.5-0.9,2.2-1.4c1.8-1.2,3.6-2.3,5.5-3.4c2-1.1,3.9-2.4,5.8-3.7
				c1.1-0.7,2.2-1.3,3.3-2c1.6-1,3.2-2,4.8-3.1c1.8-1.2,3.7-2.4,5.5-3.6c1-0.7,2-1.4,3-2.1c3.2-2.1,6.5-4.2,9.7-6.4
				c0.7-0.4,1.3-0.9,1.9-1.4c0.2-0.1,0.4-0.3,0.6-0.4c0.9-0.5,1.9-1.1,2.9-1.6c0.2-0.1,0.4-0.3,0.6-0.4c1.2-0.6,2.1-1.5,3.3-2.1
				c0.7-0.4,1.4-0.6,2.2-0.4c0.5,0.1,0.8,0.5,1,1s0.3,1,0.3,1.5C120.9,46.9,120.6,48.7,120.2,50.5z"/>
		</g>
	</g>
	<g>
		<g>
			<defs>
				<rect id="SVGID_00000005238600638811926070000007648227898158164885_" x="14.1" y="12.4" width="111" height="132"/>
			</defs>
			<clipPath id="SVGID_00000054957088189739845600000000784854736890194334_">
				<use xlink:href="#SVGID_00000005238600638811926070000007648227898158164885_"  style="overflow:visible;"/>
			</clipPath>
			<path style="clip-path:url(#SVGID_00000054957088189739845600000000784854736890194334_);fill:#347141;" d="M76.8,48.9
				c0.2,0.2,0.2,0.5,0,0.7c-0.2,0.3-0.4,0.3-0.7,0.3c-1.1,0-2.2-0.3-3.2-0.8c-0.7-0.3-1.4-0.7-2.1-1.1c-0.1,0-0.1-0.1-0.2-0.1
				c0.1,0.2,0.1,0.4,0.1,0.5c0.5,1.5,0.9,2.9,1.4,4.4c0.2,0.5,0.5,1,0.7,1.5c0.1,0.3,0.2,0.5,0.3,0.8c0.1,0.6-0.5,1-1,0.7
				c-2.2-1.1-4.2-2.6-5.8-4.4c-0.2-0.3-0.4-0.6-0.7-0.9c0-0.1-0.1-0.1-0.2-0.2c0,0.2,0,0.3-0.1,0.4c-0.2,1.3-0.5,2.6-0.7,3.9
				c0,0.1-0.1,0.3-0.1,0.4c-0.3,0.6-0.9,0.7-1.3,0.2c-0.2-0.3-0.5-0.6-0.7-0.9c-0.8-1.3-1.6-2.7-2.5-4c-0.1-0.1-0.1-0.2-0.3-0.4
				c-0.1,0.2-0.3,0.3-0.4,0.5c-0.6,0.7-1.2,1.3-1.9,2c-1,0.9-2.2,1.6-3.3,2.3c-0.1,0.1-0.2,0.1-0.4,0.1c-0.3,0.1-0.5,0-0.7-0.2
				s-0.2-0.5,0-0.7c0.2-0.5,0.5-0.9,0.7-1.4c0.6-1.1,1.2-2.3,1.5-3.6c0-0.1,0-0.2,0.1-0.3c0,0,0,0,0-0.1c-0.5,0-0.9,0.1-1.4,0.1
				c-1.7,0.2-3.4,0.3-5.1,0.2c-0.3,0-0.6-0.1-0.8-0.1c-0.3-0.1-0.5-0.2-0.5-0.6c0-0.3,0.1-0.5,0.4-0.7c0.5-0.3,1-0.7,1.5-1
				c0.7-0.5,1.3-1,1.9-1.5c0.6,0.6,1.2,1.2,2,1.6s1.5,0.8,2.3,1.1c1.2,0.5,2.4,0.9,3.7,1c0.7,0.1,1.3,0.1,2,0.2
				c0.9,0,1.8,0.1,2.7,0.1c2.6-0.1,5.1-0.9,7.3-2.3c0.8-0.5,1.6-1,2.2-1.8c0.7,1.1,1.5,2,2.4,2.9C76.4,48.2,76.6,48.5,76.8,48.9z"/>
		</g>
	</g>
	<g>
		<g>
			<defs>
				<rect id="SVGID_00000155868793820905230800000005999347143048584610_" x="14.1" y="12.4" width="111" height="132"/>
			</defs>
			<clipPath id="SVGID_00000181807705118289735760000012338964145946435210_">
				<use xlink:href="#SVGID_00000155868793820905230800000005999347143048584610_"  style="overflow:visible;"/>
			</clipPath>
			<path style="clip-path:url(#SVGID_00000181807705118289735760000012338964145946435210_);fill:#F68D70;" d="M87.5,86.1
				c-2.6,1.6-5.3,3.2-7.9,4.9c-4,2.6-8.1,4.9-12.4,7.1c-0.1,0-0.1,0.1-0.3,0.2c0.3,0.3,0.6,0.5,0.9,0.7c1,0.6,2.2,1,3.4,1
				c1.4,0.1,2.9,0.1,4.3,0c1.6-0.1,3.3-0.2,4.9-0.5c1.7-0.3,3.2-0.8,4.7-1.6c0.8-0.5,1.6-1.1,2.2-1.8c0.2-0.2,0.4-0.5,0.5-0.8
				c0.2-0.4,0.4-0.9,0.5-1.4c0.2-0.6,0.2-1.3,0.3-1.9c0.1-1.2,0.1-2.5-0.2-3.7c-0.2-0.8-0.4-1.6-0.7-2.4C87.7,86,87.6,86,87.5,86.1z
				 M64.5,99.5c-3.4,1.7-6.9,3.5-10.3,5.2c-2.7,1.4-5.5,2.7-8.2,4c-0.9,0.4-1.8,0.8-2.7,1.2c-0.2,0.1-0.2,0.1-0.1,0.3
				c0.3,0.3,0.6,0.6,0.9,0.8c1,0.8,2.1,1.2,3.3,1.3c1.4,0.2,2.9,0.2,4.3,0.3c1.7,0,3.5,0,5.2-0.2c0.8-0.1,1.7-0.3,2.5-0.5
				c0.5-0.1,1.1-0.4,1.6-0.6c1.2-0.5,2.3-1.2,3.1-2.3c0.3-0.4,0.5-0.9,0.7-1.4c0.1-0.3,0.3-0.6,0.3-1c0.1-0.9,0.3-1.8,0.3-2.7
				c0.1-1,0-2.1-0.3-3.1c-0.1-0.5-0.3-1-0.4-1.6C64.6,99.4,64.5,99.5,64.5,99.5z M18.6,120.8c0.1,0.1,0.1,0.2,0.2,0.3
				c1.1,1.2,2.5,1.9,4.1,2.1c1.9,0.3,3.7,0.5,5.6,0.5c1.1,0,2.3,0,3.4,0c0.7,0,1.4-0.1,2.1-0.2c0.6-0.1,1.2-0.4,1.9-0.5
				c1.1-0.3,2-0.8,2.8-1.5c0.4-0.3,0.8-0.7,1.1-1.1c0.2-0.3,0.4-0.7,0.6-1.1c0.1-0.3,0.3-0.6,0.4-0.9c0.4-1.6,0.6-3.2,0.4-4.9
				c-0.1-0.7-0.3-1.5-0.4-2.2c0-0.1-0.1-0.2-0.2-0.1c-0.1,0-0.1,0-0.2,0.1c-3.3,1.5-6.7,2.9-10,4.4c-3.6,1.6-7.2,3.2-10.8,4.7
				C19.3,120.4,18.9,120.5,18.6,120.8C18.6,120.7,18.6,120.8,18.6,120.8z M112.2,73.9c-0.2-0.7-0.6-1.5-0.9-2.2
				c-0.1-0.3-0.2-0.3-0.4-0.1c-1.9,1.3-3.7,2.7-5.6,3.9c-3.6,2.4-7.4,4.5-11.1,6.7c-1.3,0.8-2.6,1.5-4,2.3c-0.1,0.1-0.2,0.1-0.1,0.3
				c0.5,0.6,1.1,1.2,1.9,1.5c1.5,0.5,3.1,0.8,4.7,0.7c1.3-0.1,2.6-0.1,4-0.2s2.7-0.2,4-0.6c0.9-0.2,1.8-0.4,2.7-0.7
				c0.5-0.2,1-0.5,1.5-0.8c0.9-0.4,1.7-1.1,2.4-1.8c0.4-0.4,0.7-0.8,0.9-1.3c0.2-0.4,0.3-0.9,0.5-1.4c0.1-0.2,0.1-0.4,0.1-0.7
				c0-0.7,0.1-1.4,0.1-2.1C112.8,76.3,112.6,75.1,112.2,73.9z M77,36.8c0.1,2.3-0.6,4.4-1.9,6.3c-0.4,0.6-0.8,1.2-1.3,1.8
				c-0.6,0.8-1.5,1.4-2.4,1.9c-2.3,1.3-4.7,2.2-7.3,2.3c-0.9,0-1.8,0-2.7-0.1c-0.7,0-1.3-0.1-2-0.2c-1.3-0.1-2.5-0.5-3.7-1
				c-0.8-0.3-1.5-0.7-2.3-1.1c-1-0.5-1.8-1.3-2.6-2.2c-0.6-0.6-1.1-1.2-1.5-1.9s-0.8-1.4-1.1-2.2c-0.6-1.2-0.7-2.5-0.6-3.8
				c0.1-1.2,0.2-2.5,0.4-3.7c0.3-1.6,0.9-3.2,1.6-4.6c0.8-1.6,1.7-3.1,2.6-4.6c1-1.7,2-3.4,3-5.1c0.9-1.5,1.8-2.9,3.1-4.1
				c1-1,2.2-1.7,3.6-1.9c1.4-0.3,2.8,0,4.1,0.8s2.4,1.9,3.2,3.3c0.5,0.8,1,1.6,1.5,2.4c0.6,1,1.2,2,1.8,3c0.6,1.3,1.2,2.6,1.8,3.9
				c0.4,1,0.9,1.9,1.3,2.9c0.7,1.8,1.2,3.7,1.3,5.7C77,35.3,77,36.1,77,36.8z"/>
		</g>
	</g>
	<g>
		<g>
			<defs>
				<rect id="SVGID_00000144337345868650602450000003094461791864850840_" x="14.1" y="12.4" width="111" height="132"/>
			</defs>
			<clipPath id="SVGID_00000150780970030527343970000004317554244847142556_">
				<use xlink:href="#SVGID_00000144337345868650602450000003094461791864850840_"  style="overflow:visible;"/>
			</clipPath>
			<path style="clip-path:url(#SVGID_00000150780970030527343970000004317554244847142556_);fill:#FFFFFF;" d="M73.5,38.4
				c0,0.2,0,0.3,0,0.5s0.1,0.4,0.3,0.4c0.2,0.1,0.4,0.1,0.5-0.1c0.5-0.5,0.6-1.2,0.4-1.9c-0.1-0.2-0.3-0.4-0.6-0.4
				c-0.2,0-0.4,0.2-0.5,0.4C73.6,37.7,73.5,38,73.5,38.4L73.5,38.4z M51.8,29.9c0,0.2,0,0.4,0.1,0.6c0,0.2,0.1,0.5,0.1,0.7
				c0.1,0.2,0.3,0.4,0.5,0.4s0.4-0.1,0.4-0.4c0.1-0.3,0.1-0.7,0.2-1.1c0.1-0.3,0.1-0.6-0.1-0.9c-0.1-0.2-0.3-0.4-0.5-0.4
				s-0.4,0.1-0.5,0.3C51.9,29.3,51.8,29.6,51.8,29.9L51.8,29.9z M63.4,17.2c0.1,0.7,0.3,1.3,0.4,2c0.1,0.3,0.3,0.4,0.6,0.4
				c0.2,0,0.4-0.2,0.5-0.5c0.1-0.5,0.1-0.9,0-1.4c0-0.2-0.1-0.4-0.1-0.6c-0.1-0.4-0.4-0.6-0.7-0.6C63.7,16.5,63.3,16.8,63.4,17.2z
				 M53.4,37.7c-0.2-0.4-0.5-0.6-0.9-0.3c-0.1,0.1-0.2,0.4-0.3,0.6c-0.1,0.5,0,1,0.2,1.4c0.1,0.3,0.2,0.5,0.4,0.7
				c0.1,0.2,0.5,0.2,0.7,0.2c0.2-0.1,0.3-0.3,0.3-0.5c0-0.1,0-0.1,0-0.2C53.8,38.9,53.7,38.3,53.4,37.7z M69,35.5
				c-0.5-0.3-1.1-0.1-1.2,0.5c0,0.2,0,0.4-0.1,0.6c0,0.3,0,0.7,0,1c0,0.2,0.1,0.4,0.3,0.5s0.4,0.1,0.6-0.1c0.5-0.5,0.6-1.1,0.7-1.6
				S69.3,35.6,69,35.5z M61.5,42.1c0,0.3,0.1,0.5,0.1,0.8s0.1,0.6,0.3,0.9c0.1,0.2,0.3,0.3,0.6,0.3c0.2,0,0.4-0.2,0.4-0.4
				c0.1-0.6,0.1-1.2,0.2-1.8c0-0.2,0-0.3-0.1-0.5S62.7,41,62.5,41c-0.3,0-0.6,0-0.7,0.3C61.6,41.5,61.5,41.8,61.5,42.1L61.5,42.1z
				 M60.1,23.7c0-0.1,0-0.3-0.1-0.4c-0.1-0.2-0.3-0.4-0.5-0.4c-0.3,0-0.5,0.1-0.7,0.3c-0.5,0.8-0.6,1.7-0.2,2.6
				c0.1,0.2,0.3,0.4,0.5,0.3c0.2,0,0.4-0.2,0.4-0.4c0.1-0.3,0.2-0.6,0.2-0.9C59.9,24.4,60,24.1,60.1,23.7L60.1,23.7z M69.3,26.6
				c0,0.6,0,1.2,0,1.8c0,0.4,0.5,0.7,0.8,0.4c0.2-0.1,0.3-0.3,0.4-0.5c0.2-0.5,0.3-1,0.4-1.4c0.1-0.6-0.4-1.2-0.8-1.1
				C69.7,25.7,69.3,26.1,69.3,26.6z M60.7,32.7c-0.1,0.6-0.1,1.2-0.4,1.7c-0.1,0.2-0.3,0.3-0.6,0.3s-0.4-0.2-0.4-0.5
				c-0.1-0.5-0.2-1-0.2-1.4c0-0.3,0-0.6,0.2-0.9c0.2-0.2,0.4-0.4,0.7-0.4s0.5,0.2,0.6,0.5C60.6,32.2,60.6,32.5,60.7,32.7z"/>
		</g>
	</g>
</g>
</svg>
